HIERARCHY
ROOT Hips
{
	OFFSET 0.000000 0.000000 0.000000
	CHANNELS 6 Xposition Yposition Zposition Xrotation Yrotation Zrotation
	JOINT LeftUpLeg_virtual
	{
		OFFSET 0.000000 0.000000 0.000000
		CHANNELS 3 Xrotation Yrotation Zrotation
		JOINT LeftUpLeg
		{
			OFFSET 15.427100 -6.655098 0.678600
			CHANNELS 3 Xrotation Yrotation Zrotation
			JOINT LeftLeg
			{
				OFFSET 4.081073 -39.591068 13.024000
				CHANNELS 3 Xrotation Yrotation Zrotation
				JOINT LeftFoot
				{
					OFFSET -4.081074 -37.707932 -15.979700
					CHANNELS 3 Xrotation Yrotation Zrotation
					JOINT LeftToeBase
					{
						OFFSET 5.346399 -15.068900 20.645000
						CHANNELS 3 Xrotation Yrotation Zrotation
						JOINT LeftToe_End
						{
							OFFSET 2.754700 0.931300 11.300900
							CHANNELS 3 Xrotation Yrotation Zrotation
							End Site
							{
								OFFSET 0 0 0
							}
						}
					}
				}
			}
		}
	}
	JOINT RightUpLeg_virtual
	{
		OFFSET 0.000000 0.000000 0.000000
		CHANNELS 3 Xrotation Yrotation Zrotation
		JOINT RightUpLeg
		{
			OFFSET -15.569500 -6.655098 0.678600
			CHANNELS 3 Xrotation Yrotation Zrotation
			JOINT RightLeg
			{
				OFFSET -4.081825 -39.591045 13.023800
				CHANNELS 3 Xrotation Yrotation Zrotation
				JOINT RightFoot
				{
					OFFSET 4.081824 -37.707954 -15.979600
					CHANNELS 3 Xrotation Yrotation Zrotation
					JOINT RightToeBase
					{
						OFFSET -5.346400 -15.068900 20.645000
						CHANNELS 3 Xrotation Yrotation Zrotation
						JOINT RightToe_End
						{
							OFFSET -2.754700 0.931300 11.300900
							CHANNELS 3 Xrotation Yrotation Zrotation
							End Site
							{
								OFFSET 0 0 0
							}
						}
					}
				}
			}
		}
	}
	JOINT Spine_virtual
	{
		OFFSET 0.000000 0.000000 0.000000
		CHANNELS 3 Xrotation Yrotation Zrotation
		JOINT Spine
		{
			OFFSET -0.279200 12.230698 -2.892100
			CHANNELS 3 Xrotation Yrotation Zrotation
			JOINT Spine1
			{
				OFFSET -0.232667 10.192268 -1.242267
				CHANNELS 3 Xrotation Yrotation Zrotation
				JOINT Spine1_split
				{
					OFFSET -0.232667 10.192268 -1.242267
					CHANNELS 3 Xrotation Yrotation Zrotation
					JOINT Spine2
					{
						OFFSET -0.232667 10.192268 -1.242267
						CHANNELS 3 Xrotation Yrotation Zrotation
						JOINT Neck_virtual
						{
							OFFSET 0.000000 0.000000 0.000000
							CHANNELS 3 Xrotation Yrotation Zrotation
							JOINT Neck
							{
								OFFSET -0.418800 17.814194 8.416900
								CHANNELS 3 Xrotation Yrotation Zrotation
								JOINT Head
								{
									OFFSET 0.000000 7.031097 3.806800
									CHANNELS 3 Xrotation Yrotation Zrotation
									JOINT HeadTop_End
									{
										OFFSET 0.000000 24.646606 12.978600
										CHANNELS 3 Xrotation Yrotation Zrotation
										End Site
										{
											OFFSET 0 0 0
										}
									}
								}
							}
						}
						JOINT LeftShoulder_virtual
						{
							OFFSET 0.000000 0.000000 0.000000
							CHANNELS 3 Xrotation Yrotation Zrotation
							JOINT LeftShoulder
							{
								OFFSET 8.476499 7.247704 -3.868750
								CHANNELS 3 Xrotation Yrotation Zrotation
								JOINT LeftShoulder_split
								{
									OFFSET 8.476499 7.247704 -3.868750
									CHANNELS 3 Xrotation Yrotation Zrotation
									JOINT LeftArm
									{
										OFFSET 9.308998 -2.777710 0.208600
										CHANNELS 3 Xrotation Yrotation Zrotation
										JOINT LeftForeArm
										{
											OFFSET 29.972298 0.000000 0.000000
											CHANNELS 3 Xrotation Yrotation Zrotation
											JOINT LeftHand
											{
												OFFSET 26.026505 0.000000 0.000000
												CHANNELS 3 Xrotation Yrotation Zrotation
												End Site
												{
													OFFSET 0 0 0
												}
											}
										}
									}
								}
							}
						}
						JOINT RightShoulder_virtual
						{
							OFFSET 0.000000 0.000000 0.000000
							CHANNELS 3 Xrotation Yrotation Zrotation
							JOINT RightShoulder
							{
								OFFSET -7.570500 7.247704 -3.868750
								CHANNELS 3 Xrotation Yrotation Zrotation
								JOINT RightShoulder_split
								{
									OFFSET -7.570500 7.247704 -3.868750
									CHANNELS 3 Xrotation Yrotation Zrotation
									JOINT RightArm
									{
										OFFSET -9.308998 -2.777710 0.208500
										CHANNELS 3 Xrotation Yrotation Zrotation
										JOINT RightForeArm
										{
											OFFSET -29.972300 0.000000 0.000000
											CHANNELS 3 Xrotation Yrotation Zrotation
											JOINT RightHand
											{
												OFFSET -26.026505 0.000000 0.000000
												CHANNELS 3 Xrotation Yrotation Zrotation
												End Site
												{
													OFFSET 0 0 0
												}
											}
										}
									}
								}
							}
						}
					}
				}
			}
		}
	}
}
MOTION
Frames: 6
Frame Time: 0.03333333
10.202944 82.897484 -20.096540 0.000000 0.000000 0.000000 8.981125 12.638702 -1.095917 0.780117 11.169571 11.112225 41.467878 -1.492623 4.888177 -5.538217 -7.248788 -18.276116 -20.691081 0.166804 -1.627627 0.000000 0.000000 0.000000 8.188335 11.519796 -0.947466 -39.862999 -11.187987 -7.158545 42.085324 -0.804832 0.310891 -9.012157 3.744691 -0.763788 -2.180571 0.862482 0.271389 0.000000 0.000000 0.000000 9.148236 10.353367 -0.569440 0.661091 -3.975396 -1.369423 2.697904 -2.167959 2.213359 -0.777533 0.830495 0.075261 0.000000 0.000000 0.000000 2.628153 -2.672225 2.377962 -3.187904 1.108687 2.408833 -8.868233 3.913095 7.043356 0.000000 0.000000 0.000000 1.106843 -2.323931 2.661909 0.568078 2.895438 -0.536841 2.578086 -4.560891 7.000839 -40.498773 -10.747549 -35.784126 173.982690 -64.029882 174.800892 0.000000 0.000000 0.000000 1.206090 -3.005905 2.150696 -0.643875 -18.858490 5.950167 -2.263197 7.942943 -3.217613 -34.495525 9.076736 54.651045 -170.803866 62.505889 173.237585 0.000000 0.000000 0.000000 
10.466142 85.119286 -21.198446 0.000000 0.000000 0.000000 10.737655 12.994746 -2.033748 -10.851711 9.337546 15.288994 54.147776 -1.927731 3.604769 1.616707 -7.685993 -15.325925 -10.506165 0.437739 -3.909102 0.000000 0.000000 0.000000 8.902283 10.951085 -1.430115 -37.130100 -12.215495 -6.703285 39.398980 0.214794 1.127117 -9.724186 4.145331 0.361639 -6.039316 0.593795 -0.326537 0.000000 0.000000 0.000000 10.132773 9.443600 -1.021694 4.964502 -3.341007 -1.125086 2.704664 -1.764866 1.237749 0.249055 0.964123 0.097246 0.000000 0.000000 0.000000 2.491977 -2.273558 1.729739 -3.947898 1.009898 0.943835 -12.977465 1.129806 8.626556 0.000000 0.000000 0.000000 1.188167 -1.925814 1.897027 0.729501 1.873387 10.957274 2.556018 -2.218819 2.756873 -56.617067 -10.016314 -34.392765 174.874959 -67.739316 174.775347 0.000000 0.000000 0.000000 1.338525 -2.422019 1.350464 -2.431403 -17.717267 -2.121559 -1.443371 5.867694 -3.680999 -52.816480 4.375855 57.399052 -171.113232 65.858576 172.305250 0.000000 0.000000 0.000000 
10.397926 86.833931 -21.669455 0.000000 0.000000 0.000000 12.102329 11.946528 -1.966746 -22.032237 8.442735 18.317430 64.922137 -1.398177 1.470580 6.353322 -5.807337 -8.821474 -1.016437 0.217437 -5.560592 0.000000 0.000000 0.000000 9.852638 9.742330 -1.418837 -34.894047 -12.508466 -7.280528 37.933867 -0.249431 2.174560 -10.701259 3.748865 -0.069104 -9.994799 0.087329 -0.412486 0.000000 0.000000 0.000000 11.174484 8.076395 -0.886405 8.499655 -2.611709 -1.647773 3.027922 -1.399149 0.412224 1.110943 1.031851 0.094540 0.000000 0.000000 0.000000 2.905972 -1.855619 1.211805 -5.018459 0.954716 -0.223525 -17.791019 -1.223845 9.752036 0.000000 0.000000 0.000000 1.657052 -1.574494 1.213204 0.982905 1.239111 21.354137 2.460363 0.635352 -0.424778 -69.471439 -9.542612 -30.414597 173.786363 -74.773578 173.243855 0.000000 0.000000 0.000000 2.018399 -1.873863 0.607989 -3.819526 -15.962265 -10.141638 -0.387165 2.770694 -3.865896 -66.101922 -1.923345 56.822956 -172.496427 69.770198 171.737689 0.000000 0.000000 0.000000 
10.061304 88.232727 -21.823435 0.000000 0.000000 0.000000 13.016875 9.631001 -0.869764 -31.858526 8.960238 19.665918 71.888848 -0.669959 -0.739019 8.818418 -3.470280 -1.224470 1.984035 -0.179374 -5.236989 0.000000 0.000000 0.000000 11.068515 7.687804 -0.837268 -33.619209 -12.052005 -8.896259 36.811892 -1.603665 3.499860 -10.592014 2.876686 -1.122712 -13.009746 -0.521922 -0.036482 0.000000 0.000000 0.000000 12.172530 6.415823 -0.217458 10.524817 -1.913547 -2.701775 3.527971 -1.121901 -0.018127 1.158079 0.668718 0.352300 0.000000 0.000000 0.000000 3.673198 -1.464822 1.036708 -6.264575 0.934208 -0.786428 -22.137072 -2.830922 10.462175 0.000000 0.000000 0.000000 2.327633 -1.279763 0.907106 1.067830 1.195047 28.427155 2.193323 2.931859 -3.293664 -77.137991 -9.747535 -25.762633 169.128338 -82.111257 168.923460 0.000000 0.000000 0.000000 3.002504 -1.476640 0.149281 -4.377870 -13.932147 -16.148118 0.439846 -0.096531 -3.111916 -71.831467 -7.043473 54.374279 -175.150584 72.997216 172.212360 0.000000 0.000000 0.000000 
9.471604 89.487602 -21.608084 0.000000 0.000000 0.000000 13.689036 6.909445 0.449079 -40.142463 10.561723 19.261051 74.537595 -0.040116 -2.327230 10.195418 -1.941650 4.812562 -0.070680 -0.539841 -3.662823 0.000000 0.000000 0.000000 12.467452 5.015273 0.223072 -32.899563 -10.832254 -10.784404 34.636729 -2.634982 4.636318 -9.337420 2.565740 -1.254748 -13.918232 -0.938957 0.410821 0.000000 0.000000 0.000000 13.493793 4.763908 0.454803 10.729407 -1.204717 -3.878554 4.094849 -0.936035 0.068034 0.756087 0.177274 0.484414 0.000000 0.000000 0.000000 4.422125 -1.157930 1.257065 -7.590300 0.920137 -0.649768 -25.204470 -3.560329 10.921439 0.000000 0.000000 0.000000 2.881137 -0.982664 1.066283 0.886117 1.876640 30.064976 1.571745 3.132833 -4.914453 -77.811318 -9.557499 -22.264600 163.657589 -85.246922 164.244398 0.000000 0.000000 0.000000 4.010267 -1.202171 0.141048 -4.070534 -12.004014 -18.501476 0.824502 -1.174522 -2.146518 -69.928214 -9.897318 52.227984 -178.824625 74.441446 174.239751 0.000000 0.000000 0.000000 
8.679515 90.569153 -20.901831 0.000000 0.000000 0.000000 14.461901 4.273480 1.257099 -47.615284 12.668042 17.977423 72.630032 0.521329 -3.172681 11.163469 -1.488010 8.136474 -3.040842 -0.798203 -1.857253 0.000000 0.000000 0.000000 14.034674 2.323869 1.091874 -31.308750 -9.029282 -11.598105 30.923319 -2.994490 5.373231 -8.163422 2.959571 -0.038108 -13.267020 -1.022748 0.747199 0.000000 0.000000 0.000000 15.046963 3.209703 0.583095 9.376676 -0.391930 -4.695820 4.620357 -0.768958 0.569617 0.424295 0.171881 0.711155 0.000000 0.000000 0.000000 4.829854 -0.889624 1.774460 -8.871743 0.886822 0.100568 -26.504812 -3.587463 11.246683 0.000000 0.000000 0.000000 3.337654 -0.650622 1.549789 0.636682 3.181847 25.841285 1.023169 0.700135 -5.408522 -70.835899 -8.051004 -21.083781 171.912255 -82.262341 173.392261 0.000000 0.000000 0.000000 4.879487 -0.916615 0.571168 -3.116404 -10.422012 -16.879428 0.946745 -0.659798 -0.488508 -61.459101 -10.057977 51.476653 178.133178 74.312472 176.572261 0.000000 0.000000 0.000000 
